<mxfile host="app.diagrams.net" agent="Mozilla/5.0 (Macintosh; Intel Mac OS X 10_15_7) AppleWebKit/605.1.15 (KHTML, like Gecko) Version/18.5 Safari/605.1.15" version="27.1.6">
  <diagram name="PFD" id="VVQe9LnE8QEdI0GmJh53">
    <mxGraphModel dx="985" dy="745" grid="1" gridSize="10" guides="1" tooltips="1" connect="1" arrows="1" fold="1" page="1" pageScale="1" pageWidth="850" pageHeight="1100" math="0" shadow="0">
      <root>
        <mxCell id="0" />
        <mxCell id="1" parent="0" />
        <mxCell id="h_kipLstrNyCfa27SF-j-30" value="" style="rounded=0;whiteSpace=wrap;html=1;" parent="1" vertex="1">
          <mxGeometry x="150" y="20" width="550" height="440" as="geometry" />
        </mxCell>
        <mxCell id="h_kipLstrNyCfa27SF-j-1" value="Road hazard" style="shape=mxgraph.signs.safety.falling_rocks;html=1;pointerEvents=1;fillColor=#000000;strokeColor=none;verticalLabelPosition=bottom;verticalAlign=top;align=center;" parent="1" vertex="1">
          <mxGeometry x="205" y="350" width="70" height="60" as="geometry" />
        </mxCell>
        <mxCell id="h_kipLstrNyCfa27SF-j-4" value="SafeRoads Navigator" style="sketch=0;pointerEvents=1;shadow=0;dashed=0;html=1;strokeColor=none;labelPosition=center;verticalLabelPosition=bottom;verticalAlign=top;align=center;fillColor=#515151;shape=mxgraph.mscae.system_center.admin_console" parent="1" vertex="1">
          <mxGeometry x="383" y="230" width="97" height="70" as="geometry" />
        </mxCell>
        <mxCell id="h_kipLstrNyCfa27SF-j-6" value="Road Safety Authority" style="sketch=0;pointerEvents=1;shadow=0;dashed=0;html=1;strokeColor=none;fillColor=#505050;labelPosition=center;verticalLabelPosition=bottom;verticalAlign=top;outlineConnect=0;align=center;shape=mxgraph.office.users.tenant_admin;" parent="1" vertex="1">
          <mxGeometry x="400" y="88" width="56" height="58" as="geometry" />
        </mxCell>
        <mxCell id="h_kipLstrNyCfa27SF-j-8" value="Road Maintenance" style="shape=mxgraph.signs.people.construction;html=1;pointerEvents=1;fillColor=#000000;strokeColor=none;verticalLabelPosition=bottom;verticalAlign=top;align=center;" parent="1" vertex="1">
          <mxGeometry x="563" y="228" width="80" height="70" as="geometry" />
        </mxCell>
        <mxCell id="h_kipLstrNyCfa27SF-j-9" value="" style="endArrow=classic;html=1;rounded=0;" parent="1" edge="1">
          <mxGeometry width="50" height="50" relative="1" as="geometry">
            <mxPoint x="470" y="120" as="sourcePoint" />
            <mxPoint x="600" y="215" as="targetPoint" />
            <Array as="points">
              <mxPoint x="600" y="120" />
            </Array>
          </mxGeometry>
        </mxCell>
        <mxCell id="h_kipLstrNyCfa27SF-j-10" value="" style="endArrow=classic;html=1;rounded=0;" parent="1" edge="1">
          <mxGeometry width="50" height="50" relative="1" as="geometry">
            <mxPoint x="600" y="330" as="sourcePoint" />
            <mxPoint x="284" y="388" as="targetPoint" />
            <Array as="points">
              <mxPoint x="600" y="388" />
            </Array>
          </mxGeometry>
        </mxCell>
        <mxCell id="h_kipLstrNyCfa27SF-j-11" value="Road Users" style="sketch=0;outlineConnect=0;fontColor=#232F3E;gradientColor=none;strokeColor=#232F3E;fillColor=#ffffff;dashed=0;verticalLabelPosition=bottom;verticalAlign=top;align=center;html=1;fontSize=12;fontStyle=0;aspect=fixed;shape=mxgraph.aws4.resourceIcon;resIcon=mxgraph.aws4.users;" parent="1" vertex="1">
          <mxGeometry x="210" y="218" width="60" height="60" as="geometry" />
        </mxCell>
        <mxCell id="h_kipLstrNyCfa27SF-j-15" value="" style="endArrow=classic;html=1;rounded=0;" parent="1" edge="1">
          <mxGeometry width="50" height="50" relative="1" as="geometry">
            <mxPoint x="240" y="305" as="sourcePoint" />
            <mxPoint x="240" y="342" as="targetPoint" />
          </mxGeometry>
        </mxCell>
        <mxCell id="h_kipLstrNyCfa27SF-j-19" value="&lt;font style=&quot;font-size: 12px;&quot;&gt;(1)&lt;/font&gt;" style="text;html=1;align=center;verticalAlign=middle;whiteSpace=wrap;rounded=0;" parent="1" vertex="1">
          <mxGeometry x="192" y="304" width="60" height="30" as="geometry" />
        </mxCell>
        <mxCell id="h_kipLstrNyCfa27SF-j-21" value="&lt;font style=&quot;font-size: 12px;&quot;&gt;(2)&lt;/font&gt;" style="text;html=1;align=center;verticalAlign=middle;whiteSpace=wrap;rounded=0;" parent="1" vertex="1">
          <mxGeometry x="296" y="260" width="60" height="30" as="geometry" />
        </mxCell>
        <mxCell id="h_kipLstrNyCfa27SF-j-22" value="&lt;font style=&quot;font-size: 12px;&quot;&gt;(4)&lt;/font&gt;" style="text;html=1;align=center;verticalAlign=middle;whiteSpace=wrap;rounded=0;" parent="1" vertex="1">
          <mxGeometry x="411" y="179" width="60" height="30" as="geometry" />
        </mxCell>
        <mxCell id="h_kipLstrNyCfa27SF-j-23" value="&lt;font style=&quot;font-size: 12px;&quot;&gt;(3)&lt;/font&gt;" style="text;html=1;align=center;verticalAlign=middle;whiteSpace=wrap;rounded=0;" parent="1" vertex="1">
          <mxGeometry x="341" y="178" width="60" height="30" as="geometry" />
        </mxCell>
        <mxCell id="h_kipLstrNyCfa27SF-j-24" value="&lt;font style=&quot;font-size: 12px;&quot;&gt;(5)&lt;/font&gt;" style="text;html=1;align=center;verticalAlign=middle;whiteSpace=wrap;rounded=0;" parent="1" vertex="1">
          <mxGeometry x="520" y="120" width="60" height="30" as="geometry" />
        </mxCell>
        <mxCell id="h_kipLstrNyCfa27SF-j-25" value="&lt;font style=&quot;font-size: 12px;&quot;&gt;(6)&lt;/font&gt;" style="text;html=1;align=center;verticalAlign=middle;whiteSpace=wrap;rounded=0;" parent="1" vertex="1">
          <mxGeometry x="417" y="361" width="60" height="30" as="geometry" />
        </mxCell>
        <mxCell id="h_kipLstrNyCfa27SF-j-26" value="" style="endArrow=classic;html=1;rounded=0;" parent="1" edge="1">
          <mxGeometry width="50" height="50" relative="1" as="geometry">
            <mxPoint x="550" y="260" as="sourcePoint" />
            <mxPoint x="480" y="260" as="targetPoint" />
          </mxGeometry>
        </mxCell>
        <mxCell id="h_kipLstrNyCfa27SF-j-27" value="&lt;font style=&quot;font-size: 12px;&quot;&gt;(7)&lt;/font&gt;" style="text;html=1;align=center;verticalAlign=middle;whiteSpace=wrap;rounded=0;" parent="1" vertex="1">
          <mxGeometry x="490" y="260" width="60" height="30" as="geometry" />
        </mxCell>
        <mxCell id="h_kipLstrNyCfa27SF-j-28" value="&lt;font style=&quot;font-size: 14px;&quot;&gt;&lt;b&gt;Road Hazard Identification &amp;amp; Treatment Flow&lt;/b&gt;&lt;/font&gt;" style="text;html=1;align=center;verticalAlign=middle;whiteSpace=wrap;rounded=0;" parent="1" vertex="1">
          <mxGeometry x="271" y="39" width="312" height="30" as="geometry" />
        </mxCell>
        <mxCell id="28t3pRZub87hh0hFue1V-1" value="" style="shape=mxgraph.signs.safety.non-ionizing_radiation;html=1;pointerEvents=1;fillColor=#000000;strokeColor=none;verticalLabelPosition=bottom;verticalAlign=top;align=center;" parent="1" vertex="1">
          <mxGeometry x="343" y="193" width="54" height="40" as="geometry" />
        </mxCell>
        <mxCell id="LzDtm5I_ffqHjoT2jhe--1" value="" style="endArrow=classic;startArrow=classic;html=1;rounded=0;exitX=0.327;exitY=0.573;exitDx=0;exitDy=0;exitPerimeter=0;" edge="1" parent="1">
          <mxGeometry width="50" height="50" relative="1" as="geometry">
            <mxPoint x="369.8499999999999" y="260.12" as="sourcePoint" />
            <mxPoint x="279" y="260" as="targetPoint" />
          </mxGeometry>
        </mxCell>
        <mxCell id="LzDtm5I_ffqHjoT2jhe--2" value="" style="endArrow=classic;startArrow=classic;html=1;rounded=0;entryX=0.5;entryY=0.341;entryDx=0;entryDy=0;entryPerimeter=0;" edge="1" parent="1">
          <mxGeometry width="50" height="50" relative="1" as="geometry">
            <mxPoint x="425" y="220" as="sourcePoint" />
            <mxPoint x="425" y="172.03999999999996" as="targetPoint" />
          </mxGeometry>
        </mxCell>
      </root>
    </mxGraphModel>
  </diagram>
</mxfile>
